<?xml version="1.0" standalone="no"?>
<!DOCTYPE svg PUBLIC "-//W3C//DTD SVG 20010904//EN"
 "http://www.w3.org/TR/2001/REC-SVG-20010904/DTD/svg10.dtd">
<svg version="1.0" xmlns="http://www.w3.org/2000/svg"
 width="260.000000pt" height="260.000000pt" viewBox="0 0 260.000000 260.000000"
 preserveAspectRatio="xMidYMid meet">
<metadata>
Created by potrace 1.11, written by Peter Selinger 2001-2013
</metadata>
<g transform="translate(0.000000,260.000000) scale(0.100000,-0.100000)"
fill="#000000" stroke="none">
<path d="M515 2406 c-104 -24 -235 -94 -290 -156 l-19 -21 64 8 c80 10 704 10
780 0 l55 -7 -39 34 c-59 51 -136 95 -218 123 -90 31 -242 40 -333 19z"/>
<path d="M1785 2391 c-86 -26 -126 -44 -192 -89 -104 -71 -117 -67 230 -64
172 2 368 -1 437 -6 69 -6 127 -9 128 -7 6 6 -60 63 -110 96 -89 58 -179 83
-313 86 -93 2 -133 -1 -180 -16z"/>
<path d="M458 2162 c-50 -3 -60 -7 -84 -35 -15 -18 -42 -63 -60 -102 -18 -38
-33 -65 -34 -58 0 22 50 127 73 151 18 20 19 24 7 32 -18 11 -73 12 -160 3
l-62 -6 -34 -71 c-46 -97 -64 -173 -71 -291 -23 -414 192 -890 573 -1271 l71
-71 119 -5 c229 -11 1078 -10 1106 1 16 6 67 50 114 98 275 279 453 594 531
938 14 61 18 121 18 250 -1 158 -3 176 -28 250 -15 44 -37 98 -50 120 -21 37
-26 40 -77 46 -30 4 -166 10 -302 14 l-247 8 -5 -24 c-3 -13 -5 -46 -3 -73 2
-46 0 -50 -23 -56 -16 -3 -32 -19 -44 -44 -16 -32 -31 -44 -91 -72 -154 -71
-362 -111 -396 -76 -11 10 -7 12 19 12 41 0 128 40 168 76 38 35 214 239 214
248 0 3 -17 6 -37 6 -31 0 -44 -8 -84 -49 -26 -27 -70 -83 -99 -126 -28 -42
-54 -74 -57 -71 -9 8 76 135 126 189 24 26 42 49 40 50 -2 2 -39 1 -82 -2 -74
-6 -79 -8 -105 -41 -45 -59 -80 -90 -100 -90 -19 0 -67 46 -105 99 -21 32 -76
39 -289 40 -151 1 -158 0 -158 -19 0 -11 -11 -48 -24 -82 -14 -35 -28 -76 -31
-91 -5 -25 -7 -26 -21 -12 -8 8 -24 15 -34 15 -11 0 -27 11 -36 25 -12 18 -22
23 -39 19 -15 -4 -31 2 -51 19 l-29 25 -23 -42 c-22 -37 -47 -156 -33 -156 3
0 14 7 24 14 18 14 18 14 0 19 -12 3 -10 5 8 6 18 1 28 -5 32 -18 3 -14 -9
-29 -45 -56 -27 -20 -52 -34 -56 -31 -3 4 2 30 11 60 9 29 17 66 17 82 0 16
14 52 30 79 16 28 30 58 30 67 0 9 11 30 25 46 14 17 22 32 18 34 -5 2 -34 2
-65 0z m-108 -31 c0 -5 -7 -14 -16 -22 -9 -7 -33 -47 -54 -88 -22 -42 -39 -70
-40 -62 0 16 42 103 73 148 21 32 37 42 37 24z m217 -167 c-3 -3 -12 -4 -19
-1 -8 3 -5 6 6 6 11 1 17 -2 13 -5z m53 -38 c-19 -8 -39 -11 -45 -7 -5 3 4 9
20 12 50 11 62 8 25 -5z m365 -17 c288 -83 481 -395 435 -704 -55 -370 -385
-610 -725 -527 -213 52 -401 257 -451 493 -25 114 -14 289 22 372 101 228 270
368 469 387 95 8 166 2 250 -21z m-444 -20 c-18 -11 -35 -18 -38 -15 -5 5 46
35 62 36 6 0 -5 -9 -24 -21z m-298 -364 c-7 -21 -13 -19 -13 6 0 11 4 18 10
14 5 -3 7 -12 3 -20z m473 -922 c38 -43 60 -71 48 -63 -24 17 -124 125 -124
134 0 12 8 5 76 -71z m114 -28 c29 -39 40 -59 25 -45 -28 26 -85 103 -85 116
0 9 -2 11 60 -71z m145 -77 c14 -27 23 -48 21 -48 -15 0 -87 164 -85 194 0 6
9 -14 20 -44 11 -30 31 -76 44 -102z m-65 -23 c13 -14 21 -25 18 -25 -2 0 -15
11 -28 25 -13 14 -21 25 -18 25 2 0 15 -11 28 -25z"/>
<path d="M817 1890 c-3 -8 -24 -76 -47 -150 -23 -74 -51 -164 -62 -199 l-20
-63 -199 4 c-110 3 -199 1 -199 -3 0 -3 24 -24 53 -46 64 -48 243 -184 262
-198 11 -9 7 -31 -22 -125 -20 -63 -45 -146 -56 -185 -10 -38 -24 -78 -29 -88
-5 -11 -8 -20 -6 -22 2 -2 36 23 76 55 40 32 111 87 157 122 62 47 83 68 81
83 -2 11 -1 14 1 8 5 -13 343 -276 349 -271 1 2 -26 94 -61 206 l-63 202 167
128 166 127 -205 5 -205 5 -37 115 c-20 63 -50 158 -66 210 -16 52 -32 88 -35
80z m-405 -454 c2 -19 0 -32 -4 -30 -8 5 -12 64 -4 64 2 0 6 -15 8 -34z m316
-62 c16 -54 14 -68 -2 -24 -23 62 -29 86 -19 75 5 -5 15 -29 21 -51z m36 -134
c4 -24 3 -29 -3 -15 -4 11 -11 36 -15 55 -4 24 -3 29 3 15 4 -11 11 -36 15
-55z m25 -90 c0 -9 -4 -8 -9 5 -5 11 -9 27 -9 35 0 9 4 8 9 -5 5 -11 9 -27 9
-35z m-205 -207 c9 -18 12 -33 7 -33 -5 0 -11 8 -14 18 -2 9 -8 26 -12 37 -11
28 0 16 19 -22z"/>
<path d="M800 340 c48 -41 213 -151 291 -194 85 -47 178 -70 243 -61 70 9 200
72 331 160 60 41 120 82 132 92 22 17 5 18 -475 18 -273 1 -510 4 -527 8 l-30
7 35 -30z"/>
</g>
</svg>
